<?xml version="1.0" standalone="no"?>
<!DOCTYPE svg PUBLIC "-//W3C//DTD SVG 20010904//EN"
 "http://www.w3.org/TR/2001/REC-SVG-20010904/DTD/svg10.dtd">
<svg version="1.0" xmlns="http://www.w3.org/2000/svg"
 width="850.000000pt" height="850.000000pt" viewBox="0 0 850.000000 850.000000"
 preserveAspectRatio="xMidYMid meet">
<metadata>
Created by potrace 1.11, written by Peter Selinger 2001-2013
</metadata>
<g transform="translate(0.000000,850.000000) scale(0.100000,-0.100000)"
fill="#000000" stroke="none">
<path d="M2125 6370 l-2120 -2120 2123 -2123 2122 -2122 2122 2122 2123 2123
-2120 2120 c-1166 1166 -2122 2120 -2125 2120 -3 0 -959 -954 -2125 -2120z
m3037 3 c494 -494 898 -902 898 -908 0 -6 -407 -417 -905 -915 l-905 -905
-907 908 -908 907 905 905 c498 498 909 905 915 905 5 0 414 -404 907 -897z
m-2422 -2428 l905 -905 -303 -302 -302 -303 -907 907 -908 908 300 300 c165
165 302 300 305 300 3 0 412 -407 910 -905z m4244 606 l299 -299 -1514 -1515
-1514 -1515 -303 302 -302 301 1512 1513 c832 831 1515 1512 1518 1512 3 0
140 -135 304 -299z"/>
<path d="M3950 5765 l-305 -305 303 -302 302 -303 300 300 c165 165 300 304
300 310 0 6 -134 144 -298 308 l-297 297 -305 -305z"/>
</g>
</svg>
